<!DOCTYPE svg PUBLIC "-//W3C//DTD SVG 1.1//EN" "http://www.w3.org/Graphics/SVG/1.1/DTD/svg11.dtd">
<!-- Uploaded to: SVG Repo, www.svgrepo.com, Transformed by: SVG Repo Mixer Tools -->
<svg height="800px" width="800px" version="1.1" id="Layer_1" xmlns="http://www.w3.org/2000/svg" xmlns:xlink="http://www.w3.org/1999/xlink" viewBox="0 0 512 512" xml:space="preserve" fill="#000000">
<g id="SVGRepo_bgCarrier" stroke-width="0"/>
<g id="SVGRepo_tracerCarrier" stroke-linecap="round" stroke-linejoin="round"/>
<g id="SVGRepo_iconCarrier"> <circle style="fill:#823399;" cx="256" cy="256" r="256"/> <path style="fill:#66267b;" d="M510.178,225.445l-83.223-83.223L85.333,357.279l154.178,154.177 C244.965,511.803,250.459,512,256,512c141.384,0,256-114.616,256-256C512,245.658,511.369,235.465,510.178,225.445z"/> <g> <polygon style="fill:#FFC61B;" points="312.889,271.946 256,271.946 199.111,271.946 85.333,328.835 85.333,357.279 256,357.279 426.955,357.279 426.955,328.835 "/> <polygon style="fill:#FFC61B;" points="199.111,271.946 85.333,328.835 85.333,357.279 256,357.279 256,271.946 "/> </g> <polygon style="fill:#E2A610;" points="426.955,328.835 312.889,271.946 256,271.946 256,357.279 426.955,357.279 "/> <path style="fill:#FEE187;" d="M341.333,113.778C273.527,86.195,256,142.222,256,142.222s-17.527-56.027-85.333-28.444 s-85.621,28.444-85.621,28.444v199.111c0,0,17.815-0.862,85.621-28.444S256,341.333,256,341.333s17.527-56.027,85.333-28.444 s85.621,28.444,85.621,28.444V142.222C426.955,142.222,409.14,141.36,341.333,113.778z"/> <path style="fill:#FFEDB5;" d="M85.045,341.333c0,0,17.815-0.862,85.621-28.444S256,341.333,256,341.333V142.222 c0,0-17.527-56.027-85.333-28.444s-85.621,28.444-85.621,28.444V341.333z"/> <path style="fill:#FEE187;" d="M426.955,341.333c0,0-17.815-0.862-85.621-28.444S256,341.333,256,341.333V142.222 c0,0,17.527-56.027,85.333-28.444s85.621,28.444,85.621,28.444L426.955,341.333L426.955,341.333z"/> </g>
</svg>